<svg xmlns="http://www.w3.org/2000/svg" version="1.1" xmlns:xlink="http://www.w3.org/1999/xlink" xmlns:svgjs="http://svgjs.com/svgjs" width="1440" height="560" preserveAspectRatio="none" viewBox="0 0 1440 560"><g mask="url(&quot;#SvgjsMask3123&quot;)" fill="none"><rect width="1440" height="560" x="0" y="0" fill="url(#SvgjsLinearGradient3124)"></rect><rect width="156" height="156" clip-path="url(&quot;#SvgjsClipPath3125&quot;)" x="240.2" y="-28.57" fill="url(#SvgjsPattern3126)" transform="rotate(264.09, 318.2, 49.43)"></rect><rect width="240" height="240" clip-path="url(&quot;#SvgjsClipPath3127&quot;)" x="465.12" y="284.15" fill="url(#SvgjsPattern3128)" transform="rotate(135.44, 585.12, 404.15)"></rect><rect width="236" height="236" clip-path="url(&quot;#SvgjsClipPath3129&quot;)" x="1028.31" y="178.23" fill="url(#SvgjsPattern3130)" transform="rotate(351.74, 1146.31, 296.23)"></rect><path d="M1185.1299999999999 479.07000000000005 L1128.46 388.29L1081.4341318849451 509.0408681150549z" stroke="#d3b714" stroke-width="2.43" stroke-dasharray="4, 4"></path><rect width="168" height="168" clip-path="url(&quot;#SvgjsClipPath3131&quot;)" x="-60.77" y="153.71" fill="url(#SvgjsPattern3132)" transform="rotate(277.78, 23.23, 237.71)"></rect><circle r="46.666666666666664" cx="243.93" cy="182.24" stroke="#e73635" stroke-width="1.91"></circle><rect width="280.96" height="280.96" clip-path="url(&quot;#SvgjsClipPath3133&quot;)" x="572.38" y="389.67" fill="url(#SvgjsPattern3134)" transform="rotate(243.23, 712.86, 530.15)"></rect><rect width="360.88" height="360.88" clip-path="url(&quot;#SvgjsClipPath3135&quot;)" x="565.62" y="-135.92" fill="url(#SvgjsPattern3136)" transform="rotate(321.21, 746.06, 44.52)"></rect><rect width="196.8" height="196.8" clip-path="url(&quot;#SvgjsClipPath3137&quot;)" x="669.72" y="427.74" fill="url(#SvgjsPattern3138)" transform="rotate(3.87, 768.12, 526.14)"></rect><path d="M618.5 201a5.6 5.6 0 1 0 5.52-9.74 5.6 5.6 0 1 0-5.52 9.74zM626.38 187.08a5.6 5.6 0 1 0 5.52-9.75 5.6 5.6 0 1 0-5.52 9.75zM634.26 173.15a5.6 5.6 0 1 0 5.52-9.75 5.6 5.6 0 1 0-5.52 9.75zM642.14 159.23a5.6 5.6 0 1 0 5.52-9.75 5.6 5.6 0 1 0-5.52 9.75zM616.67 236.73a5.6 5.6 0 1 0 5.52-9.74 5.6 5.6 0 1 0-5.52 9.74zM624.55 222.81a5.6 5.6 0 1 0 5.52-9.75 5.6 5.6 0 1 0-5.52 9.75zM632.43 208.88a5.6 5.6 0 1 0 5.51-9.75 5.6 5.6 0 1 0-5.51 9.75zM640.31 194.96a5.6 5.6 0 1 0 5.51-9.75 5.6 5.6 0 1 0-5.51 9.75z" fill="#037b0b"></path><rect width="167.2" height="167.2" clip-path="url(&quot;#SvgjsClipPath3139&quot;)" x="874.73" y="438.66" fill="url(#SvgjsPattern3140)" transform="rotate(259.42, 958.33, 522.26)"></rect><path d="M1274.69 332.24L1266.45 342.04 1255.08 336.15 1246.84 345.95 1235.47 340.06 1227.22 349.86 1215.85 343.97M1273.13 324.4L1264.89 334.2 1253.52 328.31 1245.27 338.11 1233.9 332.21 1225.66 342.01 1214.29 336.12M1271.57 316.55L1263.32 326.35 1251.95 320.46 1243.71 330.26 1232.34 324.37 1224.1 334.17 1212.73 328.28" stroke="#037b0b" stroke-width="2.85"></path></g><defs><mask id="SvgjsMask3123"><rect width="1440" height="560" fill="#ffffff"></rect></mask><linearGradient x1="15.28%" y1="-39.29%" x2="84.72%" y2="139.29%" gradientUnits="userSpaceOnUse" id="SvgjsLinearGradient3124"><stop stop-color="#0e2a47" offset="0"></stop><stop stop-color="rgba(98, 2, 115, 1)" offset="1"></stop></linearGradient><pattern x="0" y="0" width="6" height="6" patternUnits="userSpaceOnUse" id="SvgjsPattern3126"><path d="M3 1L3 5M1 3L5 3" stroke="#037b0b" fill="none" stroke-width="1"></path></pattern><clipPath id="SvgjsClipPath3125"><circle r="39" cx="318.2" cy="49.43"></circle></clipPath><pattern x="0" y="0" width="6" height="6" patternUnits="userSpaceOnUse" id="SvgjsPattern3128"><path d="M3 1L3 5M1 3L5 3" stroke="#037b0b" fill="none" stroke-width="1"></path></pattern><clipPath id="SvgjsClipPath3127"><circle r="60" cx="585.12" cy="404.15"></circle></clipPath><pattern x="0" y="0" width="236" height="11.8" patternUnits="userSpaceOnUse" id="SvgjsPattern3130"><rect width="236" height="5.9" x="0" y="0" fill="#e73635"></rect><rect width="236" height="5.9" x="0" y="5.9" fill="rgba(0, 0, 0, 0)"></rect></pattern><clipPath id="SvgjsClipPath3129"><circle r="59" cx="1146.31" cy="296.23"></circle></clipPath><pattern x="0" y="0" width="168" height="6" patternUnits="userSpaceOnUse" id="SvgjsPattern3132"><rect width="168" height="3" x="0" y="0" fill="#d3b714"></rect><rect width="168" height="3" x="0" y="3" fill="rgba(0, 0, 0, 0)"></rect></pattern><clipPath id="SvgjsClipPath3131"><circle r="42" cx="23.23" cy="237.71"></circle></clipPath><pattern x="0" y="0" width="8.78" height="8.78" patternUnits="userSpaceOnUse" id="SvgjsPattern3134"><path d="M4.39 1L4.39 7.779999999999999M1 4.39L7.779999999999999 4.39" stroke="#e73635" fill="none" stroke-width="1"></path></pattern><clipPath id="SvgjsClipPath3133"><circle r="70.24" cx="712.86" cy="530.15"></circle></clipPath><pattern x="0" y="0" width="360.88" height="13.88" patternUnits="userSpaceOnUse" id="SvgjsPattern3136"><rect width="360.88" height="6.94" x="0" y="0" fill="#e73635"></rect><rect width="360.88" height="6.94" x="0" y="6.94" fill="rgba(0, 0, 0, 0)"></rect></pattern><clipPath id="SvgjsClipPath3135"><circle r="90.22" cx="746.06" cy="44.52"></circle></clipPath><pattern x="0" y="0" width="196.8" height="6.56" patternUnits="userSpaceOnUse" id="SvgjsPattern3138"><rect width="196.8" height="3.28" x="0" y="0" fill="#d3b714"></rect><rect width="196.8" height="3.28" x="0" y="3.28" fill="rgba(0, 0, 0, 0)"></rect></pattern><clipPath id="SvgjsClipPath3137"><circle r="49.2" cx="768.12" cy="526.14"></circle></clipPath><pattern x="0" y="0" width="167.2" height="7.6" patternUnits="userSpaceOnUse" id="SvgjsPattern3140"><rect width="167.2" height="3.8" x="0" y="0" fill="#037b0b"></rect><rect width="167.2" height="3.8" x="0" y="3.8" fill="rgba(0, 0, 0, 0)"></rect></pattern><clipPath id="SvgjsClipPath3139"><circle r="41.8" cx="958.33" cy="522.26"></circle></clipPath></defs></svg>